<svg width="145" height="51" viewBox="0 0 145 51" fill="none" xmlns="http://www.w3.org/2000/svg">
<g clip-path="url(#clip0_702_7483)">
<path d="M6.44657 36.417C4.45196 35.5582 2.88819 34.303 1.75525 32.635C0.638274 30.9669 0 29.0511 0 26.8215H7.61142C7.70716 28.3409 8.2497 29.497 9.17519 30.3558C10.1007 31.2146 11.3772 31.6771 12.9889 31.6771C14.6484 31.6771 15.9728 31.2807 16.8983 30.4714C17.8238 29.6622 18.3185 28.5556 18.3185 27.2344C18.3185 26.1278 18.0313 25.269 17.3451 24.5589C16.7068 23.8487 15.8771 23.3037 14.9516 22.8908C13.9782 22.4944 12.6538 22.032 10.9464 21.5696C8.64862 20.8594 6.79762 20.1988 5.32959 19.5051C3.86156 18.8115 2.64884 17.7875 1.6276 16.4167C0.606361 15.0459 0.0638274 13.1797 0.0638274 10.8675C0.0638274 8.70394 0.606361 6.82117 1.6276 5.21916C2.69671 3.60064 4.16474 2.395 6.01574 1.5362C7.9146 0.677388 10.0688 0.214953 12.5102 0.214953C16.1643 0.214953 19.1004 1.12331 21.3982 2.94002C23.6959 4.75673 24.9565 7.33315 25.148 10.6197H17.3451C17.2494 9.36457 16.7547 8.29105 15.7813 7.48179C14.808 6.67253 13.5314 6.27616 11.9676 6.27616C10.5954 6.27616 9.47838 6.62298 8.64862 7.3827C7.81886 8.14241 7.37207 9.19941 7.37207 10.5702C7.37207 11.5281 7.65929 12.3374 8.29757 12.998C8.93584 13.6586 9.71773 14.1541 10.6432 14.567C11.5687 14.9633 12.8931 15.4258 14.5527 15.9378C16.8504 16.6479 18.7493 17.3581 20.1695 18.0517C21.6375 18.7619 22.8502 19.8189 23.9193 21.1897C24.9884 22.61 25.4831 24.4267 25.4831 26.6894C25.4831 28.6547 24.9884 30.4714 24.0151 32.1395C23.0417 33.8076 21.5737 35.1618 19.7227 36.1363C17.8238 37.1437 15.5739 37.6557 12.9889 37.6557C10.6432 37.7218 8.39331 37.2758 6.44657 36.417ZM68.2634 16.4167H63.7317V37.6722H60.652C58.7053 37.6722 57.0936 36.0041 57.0936 33.9892V9.44714C57.0936 6.16055 57.9713 3.73276 59.8223 2.1803C61.6254 0.611326 64.354 -0.0988425 68.0241 0.0167663V5.73114C66.4125 5.6816 65.3433 5.97888 64.7051 6.54041C64.0668 7.10193 63.7796 8.15893 63.7796 9.67836V10.7849H68.3113L68.2634 16.4167ZM77.0397 16.4167V29.3979C77.0397 30.3063 77.2312 30.9669 77.678 31.3633C78.1248 31.7596 78.795 31.9743 79.8322 31.9743H82.864V37.6887H78.7631C73.242 37.6887 70.4655 34.9141 70.4655 29.3484V8.73697C70.4655 7.0689 71.742 5.76418 73.3377 5.76418H77.0397V10.8675H81.8268L83.9171 16.4167H77.0397ZM111.682 10.8675L96.6667 47.8788C96.0284 49.3982 94.6242 50.4057 93.0125 50.4057H88.6723L94.2891 37.0281L83.9012 10.8675H88.0978C89.9967 10.8675 91.6562 12.0731 92.3424 13.8898L97.9592 29.5961L103.911 13.2292C104.406 11.8089 105.714 10.851 107.182 10.851H111.682V10.8675ZM41.1847 9.84351C33.7647 9.84351 27.7649 16.0534 27.7649 23.7331C27.7649 31.4128 33.7647 37.6227 41.1847 37.6227C48.6046 37.6227 54.6044 31.4128 54.6044 23.7331C54.6044 16.0534 48.6046 9.84351 41.1847 9.84351ZM41.1847 30.8017C37.4348 30.8017 34.403 27.6638 34.403 23.7826C34.403 19.9015 37.4348 16.7635 41.1847 16.7635C44.9345 16.7635 47.9663 19.9015 47.9663 23.7826C47.9663 27.6638 44.9345 30.8017 41.1847 30.8017Z" fill="url(#paint0_linear_702_7483)"/>
<path d="M141.154 18.5635L139.941 19.0259V26.8543H141.154V18.5635Z" fill="url(#paint1_linear_702_7483)"/>
<path d="M117.681 45.0709C127.542 45.0709 135.489 41.0741 135.489 39.307L135.441 39.1088H135.489V24.0631L118.16 30.1243C118.016 30.1739 117.825 30.2234 117.665 30.2234C117.522 30.2234 117.33 30.1739 117.17 30.1243L108.586 27.102L102.682 41.8008C105.873 43.4689 111.394 45.0709 117.681 45.0709Z" fill="url(#paint2_linear_702_7483)"/>
<path d="M144.808 17.2588L116.899 7.31641L109.623 24.5421L116.899 27.069C117.394 27.2176 117.921 27.2176 118.463 27.069L135.489 21.1069L143.244 18.3818L144.808 17.8203C145.063 17.7047 145.063 17.3083 144.808 17.2588Z" fill="url(#paint3_linear_702_7483)"/>
<path d="M141.601 26.4414H139.558C139.319 26.6891 139.111 27.102 139.111 27.4984V32.2879C139.111 33.0972 139.75 33.8073 140.579 33.8073C141.361 33.8073 142.047 33.1467 142.047 32.2879V27.4984C141.984 27.0525 141.84 26.6891 141.601 26.4414Z" fill="url(#paint4_linear_702_7483)"/>
<path d="M5.71324 43.4194V45.649H8.58548V47.0693H5.71324V49.398H8.9844V50.8679H4.00586V41.9825H8.9844V43.4524L5.71324 43.4194Z" fill="url(#paint5_linear_702_7483)"/>
<path d="M17.2828 42.511C17.9689 42.8579 18.4955 43.4194 18.8944 44.08C19.2933 44.7406 19.4369 45.5499 19.4369 46.4087C19.4369 47.2675 19.2454 48.0768 18.8944 48.7374C18.5114 49.398 18.0168 49.8935 17.2828 50.2568C16.5966 50.6036 15.8147 50.8183 14.8892 50.8183H11.8574V41.933H14.8892C15.7669 42.0156 16.5966 42.1642 17.2828 42.511ZM16.9317 48.5722C17.4264 48.0603 17.6657 47.3666 17.6657 46.4582C17.6657 45.5499 17.4264 44.7902 16.9317 44.2947C16.437 43.7827 15.7669 43.535 14.8414 43.535H13.6286V49.398H14.8414C15.719 49.3815 16.453 49.0842 16.9317 48.5722Z" fill="url(#paint6_linear_702_7483)"/>
<path d="M23.7598 42.0155V47.5152C23.7598 48.1263 23.9034 48.5722 24.2066 48.886C24.4938 49.1833 24.9406 49.398 25.4832 49.398C26.0257 49.398 26.4565 49.2493 26.7597 48.886C27.0469 48.5887 27.2065 48.1263 27.2065 47.5152V42.0155H28.9139V47.5152C28.9139 48.2749 28.7703 48.9355 28.4192 49.431C28.132 49.943 27.6852 50.3393 27.1427 50.5871C26.6001 50.8348 26.0257 50.9834 25.3874 50.9834C24.7492 50.9834 24.1747 50.8843 23.6322 50.5871C23.0896 50.3393 22.7067 49.9264 22.4194 49.431C22.1322 48.9355 21.9727 48.2749 21.9727 47.5152V42.0155H23.7598Z" fill="url(#paint7_linear_702_7483)"/>
<path d="M32.1529 44.08C32.5359 43.3698 33.0305 42.8743 33.7167 42.4614C34.4028 42.0485 35.1368 41.8999 35.9666 41.8999C36.94 41.8999 37.7697 42.1476 38.5037 42.6596C39.2378 43.1716 39.7165 43.8653 40.0196 44.7736H38.025C37.8335 44.3772 37.5304 44.0139 37.1953 43.8157C36.8602 43.6175 36.4134 43.5184 35.9825 43.5184C35.4879 43.5184 35.0571 43.6175 34.6581 43.8653C34.2592 44.113 33.972 44.4763 33.7326 44.8727C33.5411 45.3351 33.3975 45.8306 33.3975 46.4417C33.3975 47.0528 33.4933 47.5482 33.7326 47.9611C33.9241 48.4235 34.2752 48.7704 34.6581 48.9686C35.0411 49.2163 35.4879 49.3154 35.9825 49.3154C36.4772 49.3154 36.8602 49.2163 37.1953 49.0181C37.5304 48.8199 37.8335 48.4566 38.025 48.0602H40.0196C39.7324 48.9686 39.2378 49.6787 38.5037 50.1742C37.7697 50.6862 36.94 50.9339 35.9666 50.9339C35.1368 50.9339 34.4028 50.7357 33.7167 50.3724C33.0305 50.0256 32.5518 49.464 32.1529 48.7539C31.754 48.0437 31.5625 47.284 31.5625 46.4252C31.5785 45.5498 31.7699 44.7406 32.1529 44.08Z" fill="url(#paint8_linear_702_7483)"/>
<path d="M48.0632 49.1832H44.6484L44.1059 50.9009H42.3027L45.3824 42.0155H47.377L50.4567 50.9009H48.6536L48.0632 49.1832ZM47.5845 47.7629L46.3079 44.0304L45.0314 47.7629H47.5845Z" fill="url(#paint9_linear_702_7483)"/>
<path d="M58.801 42.0155V43.4854H56.5032V50.9174H54.7958V43.4854H52.498V42.0155H58.801Z" fill="url(#paint10_linear_702_7483)"/>
<path d="M63.0941 42.0155V50.9009H61.3867V42.0155H63.0941Z" fill="url(#paint11_linear_702_7483)"/>
<path d="M67.9286 50.3889C67.2425 49.9926 66.7159 49.4806 66.317 48.7704C65.934 48.0602 65.7266 47.3005 65.7266 46.4417C65.7266 45.5829 65.918 44.7736 66.317 44.113C66.6999 43.4029 67.2425 42.9074 67.9286 42.4945C68.6148 42.0981 69.3488 41.8834 70.1307 41.8834C70.9604 41.8834 71.6944 42.0816 72.3806 42.4945C73.0667 42.8909 73.5933 43.4029 73.9922 44.113C74.3752 44.8232 74.5826 45.5829 74.5826 46.4417C74.5826 47.3005 74.3911 48.1098 73.9922 48.7704C73.6093 49.4806 73.0667 49.976 72.3806 50.3889C71.6944 50.7853 70.9604 51 70.1785 51C69.3328 50.9505 68.5988 50.7523 67.9286 50.3889ZM71.487 48.9851C71.87 48.7374 72.1731 48.374 72.4125 47.9281C72.6518 47.4657 72.7476 46.9702 72.7476 46.3591C72.7476 45.7481 72.6518 45.2526 72.4125 44.7902C72.1731 44.3277 71.87 43.9809 71.487 43.7827C71.104 43.5845 70.6094 43.4359 70.1147 43.4359C69.62 43.4359 69.1413 43.535 68.7424 43.7827C68.3594 44.0304 68.0563 44.3442 67.8169 44.7902C67.5776 45.2526 67.4818 45.7481 67.4818 46.3591C67.4818 46.9702 67.5776 47.4657 67.8169 47.9281C68.0563 48.3905 68.3594 48.7374 68.7424 48.9851C69.1254 49.2328 69.62 49.3319 70.1147 49.3319C70.6572 49.3815 71.0881 49.2328 71.487 48.9851Z" fill="url(#paint12_linear_702_7483)"/>
<path d="M84.5078 50.8513H82.8004L78.891 44.7406V50.8513H77.1836V41.9659H78.9069L82.8164 48.0767V41.9659H84.5237V50.8513H84.5078Z" fill="url(#paint13_linear_702_7483)"/>
</g>
<defs>
<linearGradient id="paint0_linear_702_7483" x1="0" y1="25.2008" x2="111.682" y2="25.2008" gradientUnits="userSpaceOnUse">
<stop stop-color="#2860D7"/>
<stop offset="1" stop-color="#52ABF7"/>
</linearGradient>
<linearGradient id="paint1_linear_702_7483" x1="139.956" y1="22.7025" x2="141.174" y2="22.7025" gradientUnits="userSpaceOnUse">
<stop stop-color="#FFAB00"/>
<stop offset="1" stop-color="#FFC900"/>
</linearGradient>
<linearGradient id="paint2_linear_702_7483" x1="102.681" y1="34.5607" x2="135.488" y2="34.5607" gradientUnits="userSpaceOnUse">
<stop stop-color="#FFAB00"/>
<stop offset="1" stop-color="#FFC900"/>
</linearGradient>
<linearGradient id="paint3_linear_702_7483" x1="109.622" y1="17.2421" x2="144.998" y2="17.2421" gradientUnits="userSpaceOnUse">
<stop stop-color="#FFAB00"/>
<stop offset="1" stop-color="#FFC900"/>
</linearGradient>
<linearGradient id="paint4_linear_702_7483" x1="139.126" y1="30.118" x2="142.003" y2="30.118" gradientUnits="userSpaceOnUse">
<stop stop-color="#FFAB00"/>
<stop offset="1" stop-color="#FFC900"/>
</linearGradient>
<linearGradient id="paint5_linear_702_7483" x1="6.76405" y1="41.1008" x2="1.51629" y2="137.96" gradientUnits="userSpaceOnUse">
<stop stop-color="#2860D7"/>
<stop offset="1" stop-color="#52ABF7"/>
</linearGradient>
<linearGradient id="paint6_linear_702_7483" x1="15.7811" y1="41.5893" x2="10.5333" y2="138.449" gradientUnits="userSpaceOnUse">
<stop stop-color="#2860D7"/>
<stop offset="1" stop-color="#52ABF7"/>
</linearGradient>
<linearGradient id="paint7_linear_702_7483" x1="25.5803" y1="42.1202" x2="20.3326" y2="138.98" gradientUnits="userSpaceOnUse">
<stop stop-color="#2860D7"/>
<stop offset="1" stop-color="#52ABF7"/>
</linearGradient>
<linearGradient id="paint8_linear_702_7483" x1="36.0195" y1="42.6858" x2="30.7717" y2="139.545" gradientUnits="userSpaceOnUse">
<stop stop-color="#2860D7"/>
<stop offset="1" stop-color="#52ABF7"/>
</linearGradient>
<linearGradient id="paint9_linear_702_7483" x1="46.7654" y1="43.268" x2="41.5176" y2="140.127" gradientUnits="userSpaceOnUse">
<stop stop-color="#2860D7"/>
<stop offset="1" stop-color="#52ABF7"/>
</linearGradient>
<linearGradient id="paint10_linear_702_7483" x1="55.5988" y1="43.7466" x2="50.351" y2="140.606" gradientUnits="userSpaceOnUse">
<stop stop-color="#2860D7"/>
<stop offset="1" stop-color="#52ABF7"/>
</linearGradient>
<linearGradient id="paint11_linear_702_7483" x1="62.3587" y1="44.1128" x2="57.1109" y2="140.972" gradientUnits="userSpaceOnUse">
<stop stop-color="#2860D7"/>
<stop offset="1" stop-color="#52ABF7"/>
</linearGradient>
<linearGradient id="paint12_linear_702_7483" x1="70.2504" y1="44.5404" x2="65.0026" y2="141.4" gradientUnits="userSpaceOnUse">
<stop stop-color="#2860D7"/>
<stop offset="1" stop-color="#52ABF7"/>
</linearGradient>
<linearGradient id="paint13_linear_702_7483" x1="80.9186" y1="45.1184" x2="75.6708" y2="141.978" gradientUnits="userSpaceOnUse">
<stop stop-color="#2860D7"/>
<stop offset="1" stop-color="#52ABF7"/>
</linearGradient>
<clipPath id="clip0_702_7483">
<rect width="145" height="51" fill="white"/>
</clipPath>
</defs>
</svg>
